<?xml version="1.0" encoding="utf-8"?>
<!-- Generator: Adobe Illustrator 25.0.0, SVG Export Plug-In . SVG Version: 6.00 Build 0)  -->
<svg version="1.1" id="Layer_1" xmlns="http://www.w3.org/2000/svg" xmlns:xlink="http://www.w3.org/1999/xlink" x="0px" y="0px"
	 viewBox="0 0 64 64.7" style="enable-background:new 0 0 64 64.7;" xml:space="preserve">
<style type="text/css">
	.st0{fill:#FFFFFF;}
</style>
<circle cx="32" cy="32" r="31"/>
<g>
	<path class="st0" d="M42.8,15.8H21.2c-3,0-5.4,2.4-5.4,5.4v21.6c0,3,2.4,5.4,5.4,5.4h21.6c3,0,5.4-2.4,5.4-5.4V21.2
		C48.2,18.2,45.8,15.8,42.8,15.8z M45.5,42.8c0,1.5-1.2,2.7-2.7,2.7H21.2c-1.5,0-2.7-1.2-2.7-2.7V21.2c0-1.5,1.2-2.7,2.7-2.7h21.6
		c1.5,0,2.7,1.2,2.7,2.7V42.8z"/>
	<path class="st0" d="M32,23.9c-4.5,0-8.1,3.6-8.1,8.1s3.6,8.1,8.1,8.1s8.1-3.6,8.1-8.1S36.5,23.9,32,23.9z M32,37.4
		c-3,0-5.4-2.4-5.4-5.4s2.4-5.4,5.4-5.4s5.4,2.4,5.4,5.4S35,37.4,32,37.4z"/>
	<circle class="st0" cx="40.8" cy="23.2" r="2"/>
</g>
</svg>
