<?xml version="1.0" encoding="utf-8"?>
<!-- Generator: Adobe Illustrator 25.0.0, SVG Export Plug-In . SVG Version: 6.00 Build 0)  -->
<svg version="1.1" id="Layer_1" xmlns="http://www.w3.org/2000/svg" xmlns:xlink="http://www.w3.org/1999/xlink" x="0px" y="0px"
	 viewBox="0 0 64 64.7" style="enable-background:new 0 0 64 64.7;" xml:space="preserve">
<style type="text/css">
	.st0{fill:#FFFFFF;stroke:#000000;stroke-miterlimit:10;}
</style>
<circle cx="32" cy="32" r="31"/>
<g>
	<g>
		<path class="st0" d="M32,52c-0.2,0-0.3-0.1-0.4-0.2c-2.5-2.9-5.5-5.3-8.3-7.6c-6.1-5.1-12-9.8-11.2-18.4c0.4-5.3,5.3-9.7,10.7-9.7
			c4.3,0,8,2.8,9.3,6.7c1.3-3.9,5-6.7,9.3-6.7c5.4,0,10.2,4.4,10.7,9.7l0,0c0.8,8.7-5.1,13.4-11.3,18.4c-2.8,2.3-5.8,4.7-8.3,7.6
			C32.3,51.9,32.1,52,32,52z"/>
	</g>
	<g>
		<path d="M15.6,26.5L15.6,26.5c-0.3,0-0.5-0.3-0.5-0.6c0.3-3.7,3.8-6.8,7.5-6.8c0.3,0,0.5,0.2,0.5,0.5s-0.2,0.5-0.5,0.5
			c-3.2,0-6.2,2.7-6.5,5.9C16.1,26.3,15.9,26.5,15.6,26.5z"/>
	</g>
</g>
</svg>
